<svg width="19" height="20" viewBox="0 0 19 20" fill="none" xmlns="http://www.w3.org/2000/svg">
<path d="M1.22516 3.05924L2.00286 2.4306L1.22516 3.05924ZM17.1994 3.05924L16.4217 2.4306L17.1994 3.05924ZM11.0651 10.6482L10.2874 10.0195L11.0651 10.6482ZM9.39629 18.209L8.94978 19.1038L9.39629 18.209ZM7.35846 10.6469L6.58076 11.2756L7.35846 10.6469ZM8.13425 17.5792L7.68774 18.474L8.13425 17.5792ZM8.58076 16.6845V11.2756H6.58076V16.6845H8.58076ZM9.84279 17.3142L8.58076 16.6845L7.68774 18.474L8.94978 19.1038L9.84279 17.3142ZM9.84279 11.2768V17.3142H11.8428V11.2768H9.84279ZM11.8428 11.2768L17.9771 3.68787L16.4217 2.4306L10.2874 10.0195L11.8428 11.2768ZM16.4217 0.430603H2.00286V2.4306H16.4217V0.430603ZM0.44746 3.68787L6.58076 11.2756L8.13616 10.0183L2.00286 2.4306L0.44746 3.68787ZM2.00286 0.430603C0.321144 0.430603 -0.609725 2.38 0.44746 3.68787L2.00286 2.4306L2.00286 2.4306V0.430603ZM17.9771 3.68787C19.0343 2.37999 18.1034 0.430603 16.4217 0.430603V2.4306L16.4217 2.4306L17.9771 3.68787ZM11.8428 11.2768L11.8428 11.2768L10.2874 10.0195C9.99972 10.3754 9.84279 10.8192 9.84279 11.2768H11.8428ZM8.94978 19.1038C10.2795 19.7673 11.8428 18.8003 11.8428 17.3142H9.84279L9.84279 17.3142L8.94978 19.1038ZM8.58076 11.2756C8.58076 10.8179 8.42383 10.3742 8.13616 10.0183L6.58076 11.2756L6.58076 11.2756H8.58076ZM6.58076 16.6845C6.58076 17.4426 7.0094 18.1355 7.68774 18.474L8.58076 16.6845L8.58076 16.6845H6.58076Z" fill="black"/>
</svg>
